<?xml version="1.0" encoding="utf-8"?>
<!-- Generator: Adobe Illustrator 19.0.0, SVG Export Plug-In . SVG Version: 6.00 Build 0)  -->
<svg version="1.1" id="Camada_1" xmlns="http://www.w3.org/2000/svg" xmlns:xlink="http://www.w3.org/1999/xlink" x="0px" y="0px"
	 viewBox="0 0 594.8 456" style="enable-background:new 0 0 594.8 456;" xml:space="preserve">
<style type="text/css">
	.st0{fill:#414042;}
	.st1{fill:none;stroke:#414042;stroke-width:17;stroke-miterlimit:10;}
</style>
<g id="XMLID_18_">
	<path id="XMLID_15_" class="st0" d="M114.9,456h-3.6c-6.6,0-12-5.4-12-12V299.2c0-6.6,5.4-12,12-12h3.6c6.6,0,12,5.4,12,12V444
		C126.9,450.6,121.5,456,114.9,456z"/>
	<path id="XMLID_17_" class="st0" d="M141.5,456H83c-6.2,0-11.3-5.1-11.3-11.3v-1.9c0-6.2,5.1-11.3,11.3-11.3h58.5
		c6.2,0,11.3,5.1,11.3,11.3v1.9C152.8,450.9,147.7,456,141.5,456z"/>
</g>
<g id="XMLID_19_">
	<path id="XMLID_21_" class="st0" d="M495.7,456h-3.6c-6.6,0-12-5.4-12-12V299.2c0-6.6,5.4-12,12-12h3.6c6.6,0,12,5.4,12,12V444
		C507.7,450.6,502.3,456,495.7,456z"/>
	<path id="XMLID_20_" class="st0" d="M521.7,456h-57.2c-6.6,0-12-5.4-12-12v-2c0-6.6,5.4-12,12-12h57.2c6.6,0,12,5.4,12,12v2
		C533.7,450.6,528.3,456,521.7,456z"/>
</g>
<g id="XMLID_22_">
	<path id="XMLID_24_" class="st0" d="M299.1,456h-3.6c-6.6,0-12-5.4-12-12V299.2c0-6.6,5.4-12,12-12h3.6c6.6,0,12,5.4,12,12V444
		C311.1,450.6,305.7,456,299.1,456z"/>
	<path id="XMLID_23_" class="st0" d="M325,456h-57.2c-6.6,0-12-5.4-12-12v-2c0-6.6,5.4-12,12-12H325c6.6,0,12,5.4,12,12v2
		C337,450.6,331.6,456,325,456z"/>
</g>
<path id="XMLID_69_" class="st1" d="M573.8,290.2h-550c-6.6,0-12-5.4-12-12V23.9c0-6.6,5.4-12,12-12h550c6.6,0,12,5.4,12,12v254.3
	C585.8,284.8,580.4,290.2,573.8,290.2z"/>
<path id="XMLID_4_" class="st0" d="M475.3,109.6c-35.2,0-64.6,25.2-71.1,58.5h-46.9v15h45.5c0.1,4.4,0.5,8.8,1.3,13h-46.9v15h51.6
	c11.2,25.6,36.8,43.5,66.4,43.5c40,0,72.5-32.5,72.5-72.5S515.3,109.6,475.3,109.6z M475.3,239.6c-21.1,0-39.6-11.5-49.6-28.5h31.6
	v-15h-37.8c-1-4.2-1.6-8.5-1.7-13h39.5v-15h-37.8c6.3-25,28.9-43.5,55.8-43.5c31.7,0,57.5,25.8,57.5,57.5S507,239.6,475.3,239.6z"/>
<rect id="XMLID_3_" x="82.3" y="60.6" class="st0" width="100" height="15"/>
<rect id="XMLID_2_" x="163.3" y="124.6" class="st0" width="100" height="15"/>
</svg>
