<?xml version="1.0" encoding="utf-8"?>
<!-- Generator: Adobe Illustrator 19.0.0, SVG Export Plug-In . SVG Version: 6.00 Build 0)  -->
<svg version="1.1" id="Camada_1" xmlns="http://www.w3.org/2000/svg" xmlns:xlink="http://www.w3.org/1999/xlink" x="0px" y="0px"
	 viewBox="0 0 583 410" style="enable-background:new 0 0 583 410;" xml:space="preserve">
<style type="text/css">
	.st0{fill:none;stroke:#414042;stroke-width:10;stroke-miterlimit:10;}
	.st1{fill:#414042;stroke:#414042;stroke-width:10;stroke-miterlimit:10;}
</style>
<path id="XMLID_1_" class="st0" d="M505.9,167.3H102.1c-6.6,0-12-5.4-12-12V18.7c0-6.6,5.4-12,12-12h403.8c6.6,0,12,5.4,12,12v136.6
	C517.9,161.9,512.5,167.3,505.9,167.3z"/>
<path id="XMLID_2_" class="st0" d="M383.9,133.2H224.1c-4.9,0-9-4-9-9v-0.6c0-4.9,4-9,9-9h159.8c4.9,0,9,4,9,9v0.6
	C392.8,129.1,388.8,133.2,383.9,133.2z"/>
<path id="XMLID_4_" class="st0" d="M521.4,60.7h42.6c6.3,0,11.4,5.1,11.4,11.4v224.6c0,6.3-5.1,11.4-11.4,11.4h-541
	c-6.3,0-11.4-5.1-11.4-11.4V72.1c0-6.3,5.1-11.4,11.4-11.4h63.7h7"/>
<line id="XMLID_5_" class="st0" x1="11.7" y1="205.7" x2="575.4" y2="205.7"/>
<path id="XMLID_3_" class="st0" d="M461.5,286L461.5,286c-4.7,0-8.5-3.8-8.5-8.5v-42c0-4.7,3.8-8.5,8.5-8.5l0,0
	c4.7,0,8.5,3.8,8.5,8.5v42C470,282.2,466.2,286,461.5,286z"/>
<path id="XMLID_6_" class="st0" d="M490.5,286L490.5,286c-4.7,0-8.5-3.8-8.5-8.5v-42c0-4.7,3.8-8.5,8.5-8.5l0,0
	c4.7,0,8.5,3.8,8.5,8.5v42C499,282.2,495.2,286,490.5,286z"/>
<path id="XMLID_7_" class="st0" d="M520.5,286L520.5,286c-4.7,0-8.5-3.8-8.5-8.5v-42c0-4.7,3.8-8.5,8.5-8.5l0,0
	c4.7,0,8.5,3.8,8.5,8.5v42C529,282.2,525.2,286,520.5,286z"/>
<path id="XMLID_8_" class="st0" d="M297,308H128c-6.6,0-12-5.4-12-12v-42c0-6.6,5.4-12,12-12h169c6.6,0,12,5.4,12,12v42
	C309,302.6,303.6,308,297,308z"/>
<path id="XMLID_9_" class="st1" d="M264.7,405h-103c-6.6,0-12-5.4-12-12V255.5c0-6.6,5.4-12,12-12h103c6.6,0,12,5.4,12,12V393
	C276.7,399.6,271.3,405,264.7,405z"/>
</svg>
