<?xml version="1.0" encoding="utf-8"?>
<!-- Generator: Adobe Illustrator 19.0.0, SVG Export Plug-In . SVG Version: 6.00 Build 0)  -->
<svg version="1.1" id="Layer_1" xmlns="http://www.w3.org/2000/svg" xmlns:xlink="http://www.w3.org/1999/xlink" x="0px" y="0px"
	 viewBox="0 0 595.3 372" style="enable-background:new 0 0 595.3 372;" xml:space="preserve">
<style type="text/css">
	.st0{fill-rule:evenodd;clip-rule:evenodd;fill:#027CC5;}
	.st1{fill-rule:evenodd;clip-rule:evenodd;fill:#037CC5;}
	.st2{fill-rule:evenodd;clip-rule:evenodd;fill:#FFFFFF;}
</style>
<g>
	<path class="st0" d="M229.6,251.7c102.7-93.8,43.6-223.4-50.5-223L71.6,28.8c-21,0-26.5,5.3-26.6,19.8L45.1,324
		c0,37.2,66.4,37.2,66.4,0l0-54.9l45.8,0l77.1,71.6c32.9,15.8,54.2-9.6,42.1-40.4L229.6,251.7z M220.9,148.9
		c-2.1,55.7-56,54.8-109.4,53.1l0-110.6C153.3,91.2,223.3,87.4,220.9,148.9z"/>
	<path class="st1" d="M371.5,239.9l109.9,0.6l-0.1,76.2c0,46.9,67.2,46.9,67.2,0l0-258.9c0-38.4-67.2-39.5-67.2,0l0,110.5H371.6
		l0-110.5c0-39.1-70-39.7-70.3,0l0,258.9c0,46.3,70.3,46.9,70.2,0L371.5,239.9L371.5,239.9z"/>
	<path class="st2" d="M514.4,298.9c12.3,0,22.3,10,22.3,22.3c0,12.3-10,22.3-22.3,22.3c-12.3,0-22.3-10-22.3-22.3
		C492.2,308.9,502.1,298.9,514.4,298.9L514.4,298.9z"/>
	<path class="st1" d="M514.4,308.6c6.9,0,12.5,5.6,12.5,12.5c0,6.9-5.6,12.5-12.5,12.5c-6.9,0-12.5-5.6-12.5-12.5
		C501.9,314.3,507.5,308.6,514.4,308.6L514.4,308.6z"/>
	<path class="st2" d="M491.9,285l0,8.4l36.5,0c11.9-0.2,10.8-33.5-0.1-33.7h-36.4l0,8.4l35.2,0c1.8-0.1,1.8,16.9,0,16.9L491.9,285
		L491.9,285z"/>
	<path class="st2" d="M492,217.8l0-22.9c-0.1-21.5,44.6-21.4,45,0l0,22.5L492,217.8L492,217.8z"/>
	<path class="st1" d="M500.4,197.6l0,11.3l28.1,0.1l0-11.4C528.6,184.8,500.5,185,500.4,197.6L500.4,197.6z"/>
	<polygon class="st2" points="491.9,256.9 492,223.1 500.4,223.1 500.4,234.3 536.9,234.3 536.9,242.8 500.4,242.9 500.3,256.9 
		491.9,256.9 	"/>
	<path class="st2" d="M514.4,131.7c12.3,0,22.3,10,22.3,22.3c0,12.3-10,22.3-22.3,22.3c-12.3,0-22.3-10-22.3-22.3
		C492.2,141.7,502.1,131.7,514.4,131.7L514.4,131.7z"/>
	<path class="st1" d="M514.4,141.5c6.9,0,12.5,5.6,12.5,12.5c0,6.9-5.6,12.5-12.5,12.5c-6.9,0-12.5-5.6-12.5-12.5
		C501.9,147.1,507.5,141.5,514.4,141.5L514.4,141.5z"/>
	<path class="st2" d="M514.4,85.3c12.3,0,22.3,10,22.3,22.3c0,12.3-10,22.3-22.3,22.3c-12.3,0-22.3-10-22.3-22.3
		C492.2,95.3,502.1,85.3,514.4,85.3L514.4,85.3z"/>
	<path class="st1" d="M514.4,95.1c6.9,0,12.5,5.6,12.5,12.5c0,6.9-5.6,12.5-12.5,12.5c-6.9,0-12.5-5.6-12.5-12.5
		C501.9,100.7,507.5,95.1,514.4,95.1L514.4,95.1z"/>
	<path class="st2" d="M533.2,70.1c5.1,0,5.1,9.1,0,9.1l-37.5,0c-2,0-3.8-1-3.8-3.9V60.9c0-9.1,9.9-15.3,13.8-15.3l5.8,0
		c4.5,0,11.4,2.5,11.4,7.6c0.3,0.4,0.9,0.4,1.1,0l6-5.8c4.2-1.6,7.7,1.3,5.5,5.8l-9.8,10.5l0,6.3L533.2,70.1L533.2,70.1z"/>
	<path class="st1" d="M517.1,70c0.2-7.3,0.4-14.7-7.3-15c-8.4-0.3-7.9,9.2-7.9,15L517.1,70L517.1,70z"/>
</g>
</svg>
