<?xml version="1.0" encoding="utf-8"?>
<!-- Generator: Adobe Illustrator 19.0.0, SVG Export Plug-In . SVG Version: 6.00 Build 0)  -->
<svg version="1.1" id="Camada_1" xmlns="http://www.w3.org/2000/svg" xmlns:xlink="http://www.w3.org/1999/xlink" x="0px" y="0px"
	 viewBox="-8 169 594.8 456" style="enable-background:new -8 169 594.8 456;" xml:space="preserve">
<style type="text/css">
	.st0{fill:#414042;}
	.st1{fill:none;stroke:#414042;stroke-width:17;stroke-miterlimit:10;}
</style>
<g id="XMLID_18_">
	<path id="XMLID_15_" class="st0" d="M101.9,625h-2.4c-4.5,0-8.1-5.4-8.1-12V468.2c0-6.6,3.7-12,8.1-12h2.4c4.5,0,8.1,5.4,8.1,12
		V613C110,619.6,106.3,625,101.9,625z"/>
	<path id="XMLID_17_" class="st0" d="M129.5,625H71c-6.2,0-11.3-5.1-11.3-11.3v-1.9c0-6.2,5.1-11.3,11.3-11.3h58.5
		c6.2,0,11.3,5.1,11.3,11.3v1.9C140.8,619.9,135.7,625,129.5,625z"/>
</g>
<g id="XMLID_19_">
	<path id="XMLID_21_" class="st0" d="M491.1,625h-2.6c-4.7,0-8.6-5.4-8.6-12V468.2c0-6.6,3.9-12,8.6-12h2.6c4.7,0,8.6,5.4,8.6,12
		V613C499.7,619.6,495.8,625,491.1,625z"/>
	<path id="XMLID_20_" class="st0" d="M517.7,625h-57.2c-6.6,0-12-5.4-12-12v-2c0-6.6,5.4-12,12-12h57.2c6.6,0,12,5.4,12,12v2
		C529.7,619.6,524.3,625,517.7,625z"/>
</g>
<g id="XMLID_69_">
	<path id="XMLID_71_" class="st1" d="M539.1,288.4l-37.4,76.2L454.6,294l-84-12l52.6-66.6l-6.4-36.7H15c-7.1,0-13,5.8-13,13v251.6
		c0,7.1,5.8,13,13,13h547c7.1,0,13-5.8,13-13v-165L539.1,288.4z"/>
</g>
</svg>
