<?xml version="1.0" encoding="utf-8"?>
<!-- Generator: Adobe Illustrator 19.0.0, SVG Export Plug-In . SVG Version: 6.00 Build 0)  -->
<svg version="1.1" id="Camada_1" xmlns="http://www.w3.org/2000/svg" xmlns:xlink="http://www.w3.org/1999/xlink" x="0px" y="0px"
	 viewBox="0 0 594.8 456" style="enable-background:new 0 0 594.8 456;" xml:space="preserve">
<style type="text/css">
	.st0{fill:#424143;}
	.st1{fill:none;stroke:#424143;stroke-width:17;stroke-miterlimit:10;}
	.st2{fill:none;stroke:#414042;stroke-width:10;stroke-miterlimit:10;}
</style>
<g id="XMLID_18_">
	<path id="XMLID_15_" class="st0" d="M113.9,456h-3.6c-6.6,0-12-5.4-12-12V299.2c0-6.6,5.4-12,12-12h3.6c6.6,0,12,5.4,12,12V444
		C125.9,450.6,120.5,456,113.9,456z"/>
	<path id="XMLID_17_" class="st0" d="M140.5,456H82c-6.2,0-11.3-5.1-11.3-11.3v-1.9c0-6.2,5.1-11.3,11.3-11.3h58.5
		c6.2,0,11.3,5.1,11.3,11.3v1.9C151.8,450.9,146.7,456,140.5,456z"/>
</g>
<g id="XMLID_19_">
	<path id="XMLID_21_" class="st0" d="M494.7,456h-3.6c-6.6,0-12-5.4-12-12V299.2c0-6.6,5.4-12,12-12h3.6c6.6,0,12,5.4,12,12V444
		C506.7,450.6,501.3,456,494.7,456z"/>
	<path id="XMLID_20_" class="st0" d="M520.7,456h-57.2c-6.6,0-12-5.4-12-12v-2c0-6.6,5.4-12,12-12h57.2c6.6,0,12,5.4,12,12v2
		C532.7,450.6,527.3,456,520.7,456z"/>
</g>
<g id="XMLID_22_">
	<path id="XMLID_24_" class="st0" d="M298.1,456h-3.6c-6.6,0-12-5.4-12-12V299.2c0-6.6,5.4-12,12-12h3.6c6.6,0,12,5.4,12,12V444
		C310.1,450.6,304.7,456,298.1,456z"/>
	<path id="XMLID_23_" class="st0" d="M324,456h-57.2c-6.6,0-12-5.4-12-12v-2c0-6.6,5.4-12,12-12H324c6.6,0,12,5.4,12,12v2
		C336,450.6,330.6,456,324,456z"/>
</g>
<path id="XMLID_69_" class="st1" d="M572.8,290.2h-550c-6.6,0-12-5.4-12-12V23.9c0-6.6,5.4-12,12-12h550c6.6,0,12,5.4,12,12v254.3
	C584.8,284.8,579.4,290.2,572.8,290.2z"/>
<path id="XMLID_2_" class="st2" d="M538,255H56c-6.6,0-12-5.4-12-12V52c0-6.6,5.4-12,12-12h482c6.6,0,12,5.4,12,12v191
	C550,249.6,544.6,255,538,255z"/>
<line id="XMLID_1_" class="st2" x1="508.1" y1="40" x2="508.1" y2="255"/>
<line id="XMLID_3_" class="st2" x1="467.5" y1="36" x2="467.5" y2="251"/>
<line id="XMLID_4_" class="st2" x1="428.8" y1="40" x2="428.8" y2="255"/>
<line id="XMLID_5_" class="st2" x1="390.8" y1="38" x2="390.8" y2="253"/>
<line id="XMLID_6_" class="st2" x1="350.8" y1="36" x2="350.8" y2="251"/>
</svg>
