<?xml version="1.0" encoding="utf-8"?>
<!-- Generator: Adobe Illustrator 19.0.0, SVG Export Plug-In . SVG Version: 6.00 Build 0)  -->
<svg version="1.1" id="Camada_1" xmlns="http://www.w3.org/2000/svg" xmlns:xlink="http://www.w3.org/1999/xlink" x="0px" y="0px"
	 viewBox="0 0 594.8 483.4" style="enable-background:new 0 0 594.8 483.4;" xml:space="preserve">
<style type="text/css">
	.st0{fill:#414042;}
	.st1{fill:none;stroke:#414042;stroke-width:14;stroke-miterlimit:10;}
</style>
<g id="XMLID_26_">
	<path id="XMLID_73_" class="st0" d="M32,302.6h224v-16H24c-4.4,0-8-3.6-8-8v-256c0-4.4,3.6-8,8-8h464c4.4,0,8,3.6,8,8v187.5h16
		V22.6c0-10.4-6.7-19.3-16-22.6H16C6.7,3.3,0,12.2,0,22.6v256c0,10.4,6.7,19.3,16,22.6"/>
	<g id="XMLID_80_">
		<g id="XMLID_81_">
			<path id="XMLID_89_" class="st0" d="M482.9,233.6v59c0,5.1,4.2,9.3,9.3,9.3h46.1c5.1,0,9.3-4.2,9.3-9.3v-12.3
				c0-1.8-0.5-3.6-1.5-5.1l-24.5-37.3c-1.7-2.6-4.6-4.2-7.8-4.2 M526,287.4l-20.1,0c-5.1,0-9.3-4.2-9.3-9.3v-21.6
				c0-5.1,4.2-9.3,9.3-9.3l0,0c3.2,0,6.1,1.6,7.8,4.3l18,27.9C531.8,279.4,535.8,287.4,526,287.4z"/>
			<path id="XMLID_82_" class="st0" d="M427.1,218.5L256,219.1l0.9,232.2l29.2-0.1c2.9,18.2,18.9,32.3,37.8,32.2
				c18.9-0.1,34.8-14.3,37.5-32.5l128.9-0.5c2.9,18.2,18.9,32.3,37.8,32.2c18.9-0.1,34.8-14.3,37.5-32.5l29.2-0.1l-0.3-63.3v0
				l-10.8,0.1l-0.4-96.3L531.3,208l-74,0.3l0.7,179l-15.8,0.1l0.2-168.9 M428.3,232.9V386H270.9V232.9h0H428.3 M472.1,222.1h51.8
				l45.3,73.3v92h-97.1C472.1,387.4,472.1,222.1,472.1,222.1z M347.1,451.9c0,12.9-10.8,16.7-23.7,16.7s-23.7-3.8-23.7-16.7
				 M551.2,450.9c0.1,12.9-10.7,17.7-23.7,17.7c-12.9,0-23.7-4.8-23.7-17.7 M286.3,436.3h-15.4V401H580v35.3h-0.1h-15.4
				 M490.4,436.3h-130"/>
		</g>
	</g>
	<path id="XMLID_74_" class="st0" d="M111.3,438.6L111.3,438.6c-4.9,0-9-4-9-9V296.4c0-4.9,4-9,9-9h0c4.9,0,9,4,9,9v133.2
		C120.3,434.5,116.2,438.6,111.3,438.6z"/>
</g>
<path id="XMLID_75_" class="st0" d="M136.8,441.1H85.7c-6.2,0-11.2-5-11.2-11.2v0c0-6.2,5-11.2,11.2-11.2h51.1
	c6.2,0,11.2,5,11.2,11.2v0C148,436,143,441.1,136.8,441.1z"/>
<g id="XMLID_10_">
	<path id="XMLID_17_" class="st1" d="M462.2,180.7V63.4c0-6.6-5.4-12-12-12H59.8c-6.6,0-12,5.4-12,12v177.9c0,6.6,5.4,12,12,12
		h210.9"/>
	<path id="XMLID_18_" class="st1" d="M270.7,245.7"/>
	<path id="XMLID_15_" class="st1" d="M270.7,261.2"/>
</g>
</svg>
